<svg xmlns="http://www.w3.org/2000/svg" version="1.1" xmlns:xlink="http://www.w3.org/1999/xlink" width="1000" height="1000"><metadata><rdf:RDF xmlns:rdf="http://www.w3.org/1999/02/22-rdf-syntax-ns#" xmlns:dc="http://purl.org/dc/elements/1.1/"><rdf:Description><dc:creator>RealFaviconGenerator</dc:creator><dc:source>https://realfavicongenerator.net</dc:source></rdf:Description></rdf:RDF></metadata><g clip-path="url(#SvgjsClipPath1001)"><rect width="1000" height="1000" fill="#ffffff"></rect><g transform="matrix(3.5,0,0,3.5,150,150)"><svg xmlns="http://www.w3.org/2000/svg" version="1.1" xmlns:xlink="http://www.w3.org/1999/xlink" viewBox="0 0 200 200" width="200" height="200"><rect width="200" height="200" fill="url('#gradient')"></rect><defs><linearGradient id="gradient" gradientTransform="rotate(45 0.5 0.5)"><stop offset="0%" stop-color="#2c313e"></stop><stop offset="100%" stop-color="#73515f"></stop></linearGradient><clipPath id="SvgjsClipPath1001"><rect width="1000" height="1000" x="0" y="0" rx="350" ry="350"></rect></clipPath></defs><g><g fill="#6eba95" transform="matrix(8.878612716763005,0,0,8.878612716763005,0.46981082693001497,162.24079569778002)" stroke="#f9c3bf" stroke-width="0.15"><path d="M9.89-8.57L9.89-6.03L4.50-6.03L4.50-2.64L10.87-2.64L10.87 0L1.07 0L1.07-14.22L10.89-14.22L10.89-11.57L4.50-11.57L4.50-8.57L9.89-8.57ZM17.93-4.46L17.93-14.22L21.35-14.22L21.35-4.46Q21.35-3.11 20.72-2.04Q20.09-0.98 18.96-0.39Q17.83 0.20 16.45 0.20L16.45 0.20Q14.12 0.20 12.83-0.98Q11.54-2.15 11.54-4.30L11.54-4.30L14.98-4.30Q14.98-3.32 15.32-2.88Q15.65-2.44 16.45-2.44L16.45-2.44Q17.16-2.44 17.54-2.97Q17.93-3.51 17.93-4.46L17.93-4.46Z"></path></g></g></svg></g></g></svg>